HIERARCHY
ROOT Hips
{
	OFFSET -0.001795 -0.223333 0.028219
	CHANNELS 6 Xposition Yposition Zposition Zrotation Yrotation Xrotation 
	JOINT LeftUpLeg
	{
		OFFSET 0.069520 -0.091406 -0.006815
		CHANNELS 3 Zrotation Yrotation Xrotation
		JOINT LeftLeg
		{
			OFFSET 0.034277 -0.375199 -0.004496
			CHANNELS 3 Zrotation Yrotation Xrotation
			JOINT LeftFoot
			{
				OFFSET -0.013596 -0.397961 -0.043693
				CHANNELS 3 Zrotation Yrotation Xrotation
				JOINT LeftToe
				{
					OFFSET 0.026358 -0.055791 0.119288
					CHANNELS 3 Zrotation Yrotation Xrotation
					End Site
					{
						OFFSET 0.000000 0.000000 0.000000
					}
				}
			}
		}
	}
	JOINT RightUpLeg
	{
		OFFSET -0.067670 -0.090522 -0.004320
		CHANNELS 3 Zrotation Yrotation Xrotation
		JOINT RightLeg
		{
			OFFSET -0.038290 -0.382569 -0.008850
			CHANNELS 3 Zrotation Yrotation Xrotation
			JOINT RightFoot
			{
				OFFSET 0.015774 -0.398415 -0.042312
				CHANNELS 3 Zrotation Yrotation Xrotation
				JOINT RightToe
				{
					OFFSET -0.025372 -0.048144 0.123348
					CHANNELS 3 Zrotation Yrotation Xrotation
					End Site
					{
						OFFSET 0.000000 0.000000 0.000000
					}
				}
			}
		}
	}
	JOINT Spine
	{
		OFFSET -0.002533 0.108963 -0.026696
		CHANNELS 3 Zrotation Yrotation Xrotation
		JOINT Spine1
		{
			OFFSET 0.005487 0.135180 0.001092
			CHANNELS 3 Zrotation Yrotation Xrotation
			JOINT Spine2
			{
				OFFSET 0.001457 0.052922 0.025425
				CHANNELS 3 Zrotation Yrotation Xrotation
				JOINT Neck
				{
					OFFSET -0.002778 0.213870 -0.042857
					CHANNELS 3 Zrotation Yrotation Xrotation
					JOINT Head
					{
						OFFSET 0.005152 0.064970 0.051349
						CHANNELS 3 Zrotation Yrotation Xrotation
						End Site
						{
							OFFSET 0.000000 0.000000 0.000000
						}
					}
				}
				JOINT LeftShoulder
				{
					OFFSET 0.078845 0.121749 -0.034090
					CHANNELS 3 Zrotation Yrotation Xrotation
					JOINT LeftArm
					{
						OFFSET 0.090977 0.030469 -0.008868
						CHANNELS 3 Zrotation Yrotation Xrotation
						JOINT LeftForeArm
						{
							OFFSET 0.259612 -0.012772 -0.027456
							CHANNELS 3 Zrotation Yrotation Xrotation
							JOINT LeftHand
							{
								OFFSET 0.249234 0.008986 -0.001171
								CHANNELS 3 Zrotation Yrotation Xrotation
								End Site
								{
									OFFSET 0.000000 0.000000 0.000000
								}
							}
						}
					}
				}
				JOINT RightShoulder
				{
					OFFSET -0.081759 0.118833 -0.038615
					CHANNELS 3 Zrotation Yrotation Xrotation
					JOINT RightArm
					{
						OFFSET -0.096012 0.032551 -0.009143
						CHANNELS 3 Zrotation Yrotation Xrotation
						JOINT RightForeArm
						{
							OFFSET -0.253742 -0.013329 -0.021401
							CHANNELS 3 Zrotation Yrotation Xrotation
							JOINT RightHand
							{
								OFFSET -0.255298 0.007772 -0.005559
								CHANNELS 3 Zrotation Yrotation Xrotation
								End Site
								{
									OFFSET 0.000000 0.000000 0.000000
								}
							}
						}
					}
				}
			}
		}
	}
}
MOTION
Frames: 9
Frame Time: 0.050000
0.000000 0.954860 0.000000 2.916076 17.350607 4.033924 2.024068 -0.108241 -0.174014 -3.596815 0.201584 3.139693 6.385386 15.884886 12.367910 0.000000 0.000000 0.000000 -6.066389 0.249417 -8.719506 2.971271 -0.521407 7.657845 -2.327151 -6.638294 6.832063 0.000000 0.000000 0.000000 9.657541 -2.080342 12.239322 -0.725544 1.107629 -20.191469 -0.442056 -6.252444 25.504505 4.811764 -0.675237 -26.125457 0.000000 0.000000 0.000000 10.284217 -23.662315 6.336986 2.081376 -33.684964 -3.084743 91.752921 -60.113300 -60.545608 0.000000 0.000000 0.000000 20.510174 6.734291 3.951396 35.958021 23.249675 0.559255 153.231402 77.068190 156.099962 0.000000 0.000000 0.000000 
0.000497 0.954098 -0.001268 2.926173 18.901291 4.461205 1.784389 -0.201829 -1.765719 -2.954248 0.112625 3.793698 6.291518 16.135084 13.497507 0.000000 0.000000 0.000000 -6.786291 0.155814 -10.155050 4.083039 -0.855241 8.908538 -2.953879 -7.890422 7.241056 0.000000 0.000000 0.000000 9.874598 -2.475065 13.988080 0.191781 0.895963 -21.316898 -0.084947 -4.748602 25.182804 3.332403 0.719689 -27.416191 0.000000 0.000000 0.000000 10.986994 -23.304218 6.339438 6.266346 -34.722033 -4.279978 94.339528 -59.575296 -63.422015 0.000000 0.000000 0.000000 20.805763 4.563555 3.344800 37.385367 25.066502 1.114541 166.200438 71.610795 173.108565 0.000000 0.000000 0.000000 
0.001044 0.953516 -0.002722 3.158927 18.776819 4.768380 1.748219 -0.265374 -2.703114 -3.472397 0.134821 4.852205 4.953658 14.047849 12.350505 0.000000 0.000000 0.000000 -6.419959 0.209707 -10.696356 3.382272 -0.736180 10.129769 -3.302431 -8.659025 7.556018 0.000000 0.000000 0.000000 10.279449 -2.516360 13.799167 0.145288 0.907063 -20.578412 -0.207018 -5.045651 24.048932 3.212456 0.475009 -24.745425 0.000000 0.000000 0.000000 11.563452 -22.709688 6.152968 5.847517 -36.291887 -4.420369 89.277968 -62.008975 -61.010116 0.000000 0.000000 0.000000 20.545148 5.551688 3.686560 37.260751 25.568919 1.467874 171.061632 72.617179 179.338613 0.000000 0.000000 0.000000 
0.001684 0.953153 -0.004117 3.477835 19.671719 5.340437 1.521201 -0.333429 -3.698967 -3.114929 0.064518 5.575857 5.251303 14.598031 12.546569 0.000000 0.000000 0.000000 -7.513726 0.041684 -11.717258 4.471462 -1.090367 11.102976 -2.881860 -7.669410 7.367382 0.000000 0.000000 0.000000 11.040146 -2.845611 14.546420 0.255374 0.893169 -21.115463 -0.155358 -4.028258 23.841800 3.939278 0.333165 -25.032501 0.000000 0.000000 0.000000 12.667199 -22.824652 6.190739 6.632789 -35.745507 -4.661962 89.284870 -61.279234 -60.987728 0.000000 0.000000 0.000000 20.250565 4.116395 3.230953 37.479512 26.650787 1.763278 177.618186 69.455703 -170.113358 0.000000 0.000000 0.000000 
0.002380 0.953254 -0.005314 3.901166 19.627685 5.696572 1.401049 -0.354640 -4.001938 -3.311817 0.076071 5.842363 5.097234 14.301527 12.209597 0.000000 0.000000 0.000000 -7.818137 -0.002581 -12.146107 4.121369 -1.012450 11.363363 -3.182881 -8.336008 8.264385 0.000000 0.000000 0.000000 11.197768 -2.888351 14.570690 0.496943 0.841061 -21.644320 -0.063886 -3.664209 23.747503 3.561394 0.516493 -24.077989 0.000000 0.000000 0.000000 11.493173 -22.842241 6.365494 6.832742 -36.693589 -4.923307 85.859222 -60.495292 -57.311727 0.000000 0.000000 0.000000 19.906238 4.364549 3.428639 36.047899 27.886538 1.951289 -176.655336 68.076520 -161.330491 0.000000 0.000000 0.000000 
0.003247 0.953795 -0.006510 4.139425 19.350107 5.875258 0.924885 -0.372517 -4.340943 -2.953867 0.034101 6.009157 5.061342 14.438566 12.889625 0.000000 0.000000 0.000000 -8.387914 -0.086102 -12.812862 4.370928 -1.099588 11.924090 -3.056752 -8.125787 8.890666 0.000000 0.000000 0.000000 11.392316 -2.998462 14.957152 0.522373 0.830927 -21.936689 0.250932 -3.014097 24.104869 3.867386 0.422041 -24.265079 0.000000 0.000000 0.000000 10.636855 -23.140887 6.540097 6.828733 -36.746904 -4.985730 84.918127 -59.258929 -55.516493 0.000000 0.000000 0.000000 19.756127 4.758506 3.773699 34.637679 29.305792 2.090302 -170.858698 66.252445 -151.751495 0.000000 0.000000 0.000000 
0.004222 0.954063 -0.007896 4.429059 19.680581 5.936462 0.758676 -0.369860 -4.353572 -2.963800 0.037423 5.839523 4.753902 14.030603 12.868200 0.000000 0.000000 0.000000 -8.912097 -0.179883 -12.779678 4.504918 -1.160808 12.138839 -3.156332 -8.304440 8.903969 0.000000 0.000000 0.000000 11.635258 -3.088954 15.099723 0.333753 0.882881 -21.931756 0.431955 -3.241798 24.144104 4.075299 0.250580 -23.973326 0.000000 0.000000 0.000000 9.226056 -23.027099 6.660248 6.559513 -36.658706 -4.890321 85.143718 -59.114370 -55.486072 0.000000 0.000000 0.000000 19.443142 5.144215 3.952528 33.036054 30.396343 2.131162 -166.139410 65.723658 -144.544423 0.000000 0.000000 0.000000 
0.005116 0.954692 -0.009748 4.447751 19.538627 6.184642 0.503824 -0.391678 -4.646786 -2.937228 0.043269 5.620485 4.630167 13.817358 12.703575 0.000000 0.000000 0.000000 -9.078941 -0.206452 -13.170111 4.420433 -1.146048 12.358789 -2.920678 -7.825737 8.962206 0.000000 0.000000 0.000000 11.800504 -3.109436 15.011975 0.283732 0.892144 -21.384503 0.749657 -2.878067 24.047857 4.033163 0.301971 -23.870800 0.000000 0.000000 0.000000 8.039951 -23.074687 6.809445 7.053983 -36.238993 -4.936973 86.802828 -57.930453 -55.803012 0.000000 0.000000 0.000000 19.666654 5.200787 4.066465 31.558678 30.454707 1.878370 -165.743162 64.000781 -142.982802 0.000000 0.000000 0.000000 
0.005692 0.955678 -0.012094 4.465457 19.564760 6.673874 0.625105 -0.444668 -5.210437 -2.961485 0.047689 5.539399 4.441308 13.587019 12.751416 0.000000 0.000000 0.000000 -9.321269 -0.256398 -13.857380 4.322765 -1.116629 12.326083 -2.911737 -7.807951 9.274731 0.000000 0.000000 0.000000 11.746405 -3.097090 14.905998 0.547066 0.825400 -21.116805 0.768294 -2.818594 24.008620 3.997510 0.349037 -24.065336 0.000000 0.000000 0.000000 7.029123 -22.435549 6.761798 7.301785 -36.209610 -4.995446 87.935021 -56.049612 -54.923537 0.000000 0.000000 0.000000 20.161049 5.208964 4.127843 30.132868 30.384942 1.609669 -164.596280 62.713192 -140.626709 0.000000 0.000000 0.000000 
